<mxfile host="app.diagrams.net" modified="2023-08-03T09:38:49.391Z" agent="Mozilla/5.0 (X11; Ubuntu; Linux x86_64; rv:109.0) Gecko/20100101 Firefox/116.0" version="21.6.6" etag="oirPEymt26O2DlNDdKy_" type="github">
  <diagram name="Page-1" id="D8ltpV2mL_op1gPOGFGM">
    <mxGraphModel>
      <root>
        <mxCell id="0" />
        <mxCell id="1" parent="0" />
      </root>
    </mxGraphModel>
  </diagram>
</mxfile>
